<?xml version="1.0" encoding="UTF-8" standalone="no"?><svg xmlns="http://www.w3.org/2000/svg" xmlns:xlink="http://www.w3.org/1999/xlink" fill="#000000" height="157.2" preserveAspectRatio="xMidYMid meet" version="1" viewBox="0.0 0.0 450.0 157.2" width="450" zoomAndPan="magnify"><defs><clipPath id="a"><path d="M 397 139 L 426 139 L 426 157.238281 L 397 157.238281 Z M 397 139"/></clipPath><clipPath id="b"><path d="M 398 149 L 407 149 L 407 157.238281 L 398 157.238281 Z M 398 149"/></clipPath><clipPath id="c"><path d="M 389 149 L 397 149 L 397 157.238281 L 389 157.238281 Z M 389 149"/></clipPath><clipPath id="d"><path d="M 380 149 L 388 149 L 388 157.238281 L 380 157.238281 Z M 380 149"/></clipPath><clipPath id="e"><path d="M 292 149 L 301 149 L 301 157.238281 L 292 157.238281 Z M 292 149"/></clipPath><clipPath id="f"><path d="M 273 139 L 302 139 L 302 157.238281 L 273 157.238281 Z M 273 139"/></clipPath><clipPath id="g"><path d="M 274 149 L 282 149 L 282 157.238281 L 274 157.238281 Z M 274 149"/></clipPath><clipPath id="h"><path d="M 265 149 L 273 149 L 273 157.238281 L 265 157.238281 Z M 265 149"/></clipPath><clipPath id="i"><path d="M 177 149 L 185 149 L 185 157.238281 L 177 157.238281 Z M 177 149"/></clipPath><clipPath id="j"><path d="M 168 149 L 176 149 L 176 157.238281 L 168 157.238281 Z M 168 149"/></clipPath><clipPath id="k"><path d="M 148 139 L 177 139 L 177 157.238281 L 148 157.238281 Z M 148 139"/></clipPath><clipPath id="l"><path d="M 149 149 L 158 149 L 158 157.238281 L 149 157.238281 Z M 149 149"/></clipPath><clipPath id="m"><path d="M 62 149 L 70 149 L 70 157.238281 L 62 157.238281 Z M 62 149"/></clipPath><clipPath id="n"><path d="M 53 149 L 61 149 L 61 157.238281 L 53 157.238281 Z M 53 149"/></clipPath><clipPath id="o"><path d="M 43 149 L 52 149 L 52 157.238281 L 43 157.238281 Z M 43 149"/></clipPath><clipPath id="p"><path d="M 24 139 L 53 139 L 53 157.238281 L 24 157.238281 Z M 24 139"/></clipPath></defs><g><g id="change1_1"><path d="M 351.542969 154.53125 C 348.394531 154.53125 345.847656 151.980469 345.84375 148.832031 L 345.84375 22.621094 C 345.847656 19.472656 348.394531 16.921875 351.542969 16.921875 L 381.453125 16.921875 L 381.453125 18.882812 L 351.542969 18.882812 C 349.480469 18.886719 347.808594 20.554688 347.804688 22.621094 L 347.804688 148.832031 C 347.808594 150.898438 349.480469 152.566406 351.542969 152.570312 L 444.300781 152.570312 C 446.363281 152.566406 448.035156 150.898438 448.039062 148.832031 L 448.039062 22.621094 C 448.035156 20.554688 446.363281 18.886719 444.300781 18.882812 L 414.390625 18.882812 L 414.390625 16.921875 L 444.300781 16.921875 C 447.449219 16.921875 450 19.472656 450 22.621094 L 450 148.832031 C 450 151.980469 447.449219 154.53125 444.300781 154.53125 L 351.542969 154.53125" fill="#29a4da"/></g><g id="change1_2"><path d="M 411.789062 156.261719 C 413.285156 156.261719 414.496094 155.046875 414.496094 153.550781 C 414.496094 152.054688 413.285156 150.84375 411.789062 150.84375 C 410.292969 150.84375 409.082031 152.054688 409.082031 153.550781 C 409.082031 155.046875 410.292969 156.261719 411.789062 156.261719" fill="#29a4da"/></g><g clip-path="url(#a)"><path d="M 4117.890625 9.782812 C 4132.851562 9.782812 4144.960938 21.93125 4144.960938 36.892187 C 4144.960938 51.853125 4132.851562 63.9625 4117.890625 63.9625 C 4102.929688 63.9625 4090.820312 51.853125 4090.820312 36.892187 C 4090.820312 21.93125 4102.929688 9.782812 4117.890625 9.782812 Z M 4117.890625 9.782812" fill="none" stroke="#29a4da" stroke-width="19.606" transform="matrix(.1 0 0 -.1 0 157.24)"/></g><g id="change2_1"><path d="M 402.542969 156.261719 C 404.039062 156.261719 405.25 155.046875 405.25 153.550781 C 405.25 152.054688 404.039062 150.84375 402.542969 150.84375 C 401.050781 150.84375 399.835938 152.054688 399.835938 153.550781 C 399.835938 155.046875 401.050781 156.261719 402.542969 156.261719" fill="#ffffff"/></g><g clip-path="url(#b)" id="change1_8"><path d="M 398.855469 153.550781 C 398.855469 151.515625 400.507812 149.863281 402.542969 149.863281 C 404.582031 149.863281 406.230469 151.515625 406.230469 153.550781 C 406.230469 155.589844 404.582031 157.238281 402.542969 157.238281 L 402.542969 155.277344 C 403.5 155.277344 404.269531 154.507812 404.269531 153.550781 C 404.269531 152.597656 403.5 151.824219 402.542969 151.824219 C 401.589844 151.824219 400.820312 152.597656 400.816406 153.550781 C 400.820312 154.503906 401.589844 155.277344 402.542969 155.277344 L 402.542969 157.238281 C 400.507812 157.238281 398.855469 155.589844 398.855469 153.550781" fill="#29a4da"/></g><g id="change2_2"><path d="M 393.300781 156.261719 C 394.796875 156.261719 396.007812 155.046875 396.007812 153.550781 C 396.007812 152.054688 394.796875 150.84375 393.300781 150.84375 C 391.804688 150.84375 390.59375 152.054688 390.59375 153.550781 C 390.59375 155.046875 391.804688 156.261719 393.300781 156.261719" fill="#ffffff"/></g><g clip-path="url(#c)" id="change1_7"><path d="M 389.613281 153.550781 C 389.613281 151.515625 391.265625 149.863281 393.300781 149.863281 C 395.339844 149.863281 396.988281 151.515625 396.988281 153.550781 C 396.988281 155.589844 395.339844 157.238281 393.300781 157.238281 L 393.300781 155.277344 C 394.253906 155.277344 395.027344 154.507812 395.027344 153.550781 C 395.027344 152.597656 394.253906 151.824219 393.300781 151.824219 C 392.347656 151.824219 391.574219 152.597656 391.574219 153.550781 C 391.574219 154.503906 392.347656 155.277344 393.300781 155.277344 L 393.300781 157.238281 C 391.265625 157.238281 389.613281 155.589844 389.613281 153.550781" fill="#29a4da"/></g><g id="change2_3"><path d="M 384.058594 156.261719 C 385.554688 156.261719 386.765625 155.046875 386.765625 153.550781 C 386.765625 152.054688 385.554688 150.84375 384.058594 150.84375 C 382.5625 150.84375 381.351562 152.054688 381.351562 153.550781 C 381.351562 155.046875 382.5625 156.261719 384.058594 156.261719" fill="#ffffff"/></g><g clip-path="url(#d)" id="change1_9"><path d="M 380.371094 153.550781 C 380.371094 151.515625 382.019531 149.863281 384.058594 149.863281 C 386.09375 149.863281 387.746094 151.515625 387.746094 153.550781 C 387.746094 155.589844 386.09375 157.238281 384.058594 157.238281 L 384.058594 155.277344 C 385.011719 155.277344 385.78125 154.507812 385.785156 153.550781 C 385.78125 152.597656 385.011719 151.824219 384.058594 151.824219 C 383.105469 151.824219 382.332031 152.597656 382.332031 153.550781 C 382.332031 154.503906 383.105469 155.277344 384.058594 155.277344 L 384.058594 157.238281 C 382.019531 157.238281 380.371094 155.589844 380.371094 153.550781" fill="#29a4da"/></g><g id="change1_3"><path d="M 386.171875 38.847656 C 383.023438 38.847656 380.472656 36.296875 380.472656 33.148438 L 380.472656 5.703125 C 380.46875 3.640625 378.796875 1.96875 376.734375 1.964844 L 359.921875 1.964844 L 359.921875 0.00390625 L 376.734375 0.00390625 C 379.882812 0.00390625 382.433594 2.554688 382.433594 5.703125 L 382.433594 33.148438 C 382.4375 35.210938 384.105469 36.882812 386.171875 36.886719 L 418.863281 36.886719 L 418.863281 38.847656 L 386.171875 38.847656" fill="#29a4da"/></g><g id="change2_4"><path d="M 413.066406 33.644531 L 418.863281 37.867188 L 413.066406 42.089844 Z M 413.066406 33.644531" fill="#ffffff"/></g><g id="change1_4"><path d="M 414.046875 40.160156 L 417.195312 37.863281 L 414.046875 35.570312 Z M 412.085938 33.644531 L 412.085938 31.714844 L 420.527344 37.863281 L 412.085938 44.015625 L 412.085938 33.644531" fill="#29a4da"/></g><g id="change2_5"><path d="M 381.453125 20.609375 C 382.949219 20.609375 384.160156 19.398438 384.160156 17.902344 C 384.160156 16.40625 382.949219 15.195312 381.453125 15.195312 C 379.957031 15.195312 378.746094 16.40625 378.746094 17.902344 C 378.746094 19.398438 379.957031 20.609375 381.453125 20.609375" fill="#ffffff"/></g><g id="change1_5"><path d="M 377.765625 17.902344 C 377.765625 15.863281 379.417969 14.214844 381.453125 14.214844 C 383.492188 14.214844 385.140625 15.863281 385.140625 17.902344 C 385.140625 19.9375 383.492188 21.589844 381.453125 21.589844 L 381.453125 19.628906 C 382.40625 19.628906 383.179688 18.855469 383.179688 17.902344 C 383.179688 16.945312 382.40625 16.175781 381.453125 16.175781 C 380.5 16.175781 379.726562 16.945312 379.726562 17.902344 C 379.726562 18.855469 380.5 19.628906 381.453125 19.628906 L 381.453125 21.589844 C 379.417969 21.589844 377.765625 19.941406 377.765625 17.902344" fill="#29a4da"/></g><g id="change1_6"><path d="M 400.09375 26.347656 L 400.09375 18.867188 C 400.09375 18.648438 400.101562 18.410156 400.117188 18.148438 C 400.136719 17.886719 400.160156 17.621094 400.195312 17.351562 L 393.585938 26.347656 Z M 404.816406 26.347656 L 404.816406 27.636719 C 404.816406 27.773438 404.777344 27.886719 404.695312 27.980469 C 404.617188 28.070312 404.492188 28.117188 404.320312 28.117188 L 402.066406 28.117188 L 402.066406 32.890625 L 400.09375 32.890625 L 400.09375 28.117188 L 392.039062 28.117188 C 391.871094 28.117188 391.726562 28.070312 391.601562 27.972656 C 391.480469 27.875 391.402344 27.757812 391.367188 27.613281 L 391.140625 26.460938 L 399.964844 14.757812 L 402.066406 14.757812 L 402.066406 26.347656 L 404.816406 26.347656" fill="#29a4da"/></g><g id="change3_1"><path d="M 236.261719 154.53125 C 233.113281 154.53125 230.5625 151.980469 230.5625 148.832031 L 230.5625 22.621094 C 230.5625 19.472656 233.113281 16.921875 236.261719 16.921875 L 266.171875 16.921875 L 266.171875 18.882812 L 236.261719 18.882812 C 234.199219 18.886719 232.527344 20.558594 232.523438 22.621094 L 232.523438 148.832031 C 232.527344 150.898438 234.199219 152.566406 236.261719 152.570312 L 329.019531 152.570312 C 331.082031 152.566406 332.753906 150.898438 332.757812 148.832031 L 332.757812 22.621094 C 332.753906 20.558594 331.082031 18.886719 329.019531 18.882812 L 299.109375 18.882812 L 299.109375 16.921875 L 329.019531 16.921875 C 332.167969 16.921875 334.71875 19.472656 334.71875 22.621094 L 334.71875 148.832031 C 334.71875 151.980469 332.167969 154.53125 329.019531 154.53125 L 236.261719 154.53125" fill="#29a4da"/></g><g id="change2_6"><path d="M 296.507812 156.261719 C 298.003906 156.261719 299.214844 155.046875 299.214844 153.550781 C 299.214844 152.054688 298.003906 150.84375 296.507812 150.84375 C 295.011719 150.84375 293.796875 152.054688 293.796875 153.550781 C 293.796875 155.046875 295.011719 156.261719 296.507812 156.261719" fill="#ffffff"/></g><g clip-path="url(#e)" id="change3_8"><path d="M 292.816406 153.550781 C 292.820312 151.515625 294.46875 149.863281 296.507812 149.863281 C 298.542969 149.863281 300.195312 151.515625 300.195312 153.550781 C 300.191406 155.589844 298.542969 157.238281 296.507812 157.238281 L 296.507812 155.277344 C 297.460938 155.277344 298.230469 154.507812 298.234375 153.550781 C 298.230469 152.597656 297.460938 151.824219 296.507812 151.824219 C 295.554688 151.824219 294.78125 152.597656 294.777344 153.550781 C 294.78125 154.503906 295.554688 155.277344 296.507812 155.277344 L 296.507812 157.238281 C 294.46875 157.238281 292.820312 155.589844 292.816406 153.550781" fill="#29a4da"/></g><g id="change3_2"><path d="M 287.261719 156.261719 C 288.757812 156.261719 289.96875 155.046875 289.96875 153.550781 C 289.96875 152.054688 288.757812 150.84375 287.261719 150.84375 C 285.769531 150.84375 284.554688 152.054688 284.554688 153.550781 C 284.554688 155.046875 285.769531 156.261719 287.261719 156.261719" fill="#29a4da"/></g><g clip-path="url(#f)"><path d="M 2872.617188 9.782812 C 2887.578125 9.782812 2899.6875 21.93125 2899.6875 36.892187 C 2899.6875 51.853125 2887.578125 63.9625 2872.617188 63.9625 C 2857.695312 63.9625 2845.546875 51.853125 2845.546875 36.892187 C 2845.546875 21.93125 2857.695312 9.782812 2872.617188 9.782812 Z M 2872.617188 9.782812" fill="none" stroke="#29a4da" stroke-width="19.606" transform="matrix(.1 0 0 -.1 0 157.24)"/></g><g id="change2_7"><path d="M 278.019531 156.261719 C 279.515625 156.261719 280.726562 155.046875 280.726562 153.550781 C 280.726562 152.054688 279.515625 150.84375 278.019531 150.84375 C 276.523438 150.84375 275.3125 152.054688 275.3125 153.550781 C 275.3125 155.046875 276.523438 156.261719 278.019531 156.261719" fill="#ffffff"/></g><g clip-path="url(#g)" id="change3_9"><path d="M 274.332031 153.550781 C 274.332031 151.515625 275.984375 149.863281 278.019531 149.863281 C 280.058594 149.863281 281.707031 151.515625 281.707031 153.550781 C 281.707031 155.589844 280.058594 157.238281 278.019531 157.238281 L 278.019531 155.277344 C 278.972656 155.277344 279.746094 154.507812 279.746094 153.550781 C 279.746094 152.597656 278.972656 151.824219 278.019531 151.824219 C 277.066406 151.824219 276.292969 152.597656 276.292969 153.550781 C 276.292969 154.503906 277.066406 155.277344 278.019531 155.277344 L 278.019531 157.238281 C 275.984375 157.238281 274.332031 155.589844 274.332031 153.550781" fill="#29a4da"/></g><g id="change2_8"><path d="M 268.777344 156.261719 C 270.273438 156.261719 271.484375 155.046875 271.484375 153.550781 C 271.484375 152.054688 270.273438 150.84375 268.777344 150.84375 C 267.28125 150.84375 266.070312 152.054688 266.070312 153.550781 C 266.070312 155.046875 267.28125 156.261719 268.777344 156.261719" fill="#ffffff"/></g><g clip-path="url(#h)" id="change3_7"><path d="M 265.089844 153.550781 C 265.089844 151.515625 266.738281 149.863281 268.777344 149.863281 C 270.8125 149.863281 272.464844 151.515625 272.464844 153.550781 C 272.464844 155.589844 270.8125 157.238281 268.777344 157.238281 L 268.777344 155.277344 C 269.730469 155.277344 270.503906 154.507812 270.503906 153.550781 C 270.503906 152.597656 269.730469 151.824219 268.777344 151.824219 C 267.824219 151.824219 267.050781 152.597656 267.050781 153.550781 C 267.050781 154.503906 267.824219 155.277344 268.777344 155.277344 L 268.777344 157.238281 C 266.738281 157.238281 265.089844 155.589844 265.089844 153.550781" fill="#29a4da"/></g><g id="change3_3"><path d="M 270.890625 38.847656 C 267.742188 38.847656 265.191406 36.296875 265.191406 33.148438 L 265.191406 5.703125 C 265.1875 3.640625 263.515625 1.96875 261.453125 1.964844 L 244.640625 1.964844 L 244.640625 0.00390625 L 261.453125 0.00390625 C 264.601562 0.00390625 267.152344 2.554688 267.152344 5.703125 L 267.152344 33.148438 C 267.15625 35.210938 268.824219 36.882812 270.890625 36.886719 L 303.582031 36.886719 L 303.582031 38.847656 L 270.890625 38.847656" fill="#29a4da"/></g><g id="change2_9"><path d="M 297.785156 33.644531 L 303.582031 37.867188 L 297.785156 42.089844 Z M 297.785156 33.644531" fill="#ffffff"/></g><g id="change3_4"><path d="M 298.765625 40.160156 L 301.914062 37.863281 L 298.765625 35.570312 Z M 296.804688 33.644531 L 296.804688 31.714844 L 305.246094 37.863281 L 296.804688 44.015625 L 296.804688 33.644531" fill="#29a4da"/></g><g id="change2_10"><path d="M 266.171875 20.609375 C 267.667969 20.609375 268.878906 19.398438 268.878906 17.902344 C 268.878906 16.40625 267.667969 15.195312 266.171875 15.195312 C 264.675781 15.195312 263.464844 16.40625 263.464844 17.902344 C 263.464844 19.398438 264.675781 20.609375 266.171875 20.609375" fill="#ffffff"/></g><g id="change3_5"><path d="M 262.484375 17.902344 C 262.484375 15.863281 264.136719 14.214844 266.171875 14.214844 C 268.207031 14.214844 269.859375 15.863281 269.859375 17.902344 C 269.859375 19.9375 268.207031 21.589844 266.171875 21.589844 L 266.171875 19.628906 C 267.125 19.628906 267.898438 18.855469 267.898438 17.902344 C 267.898438 16.945312 267.125 16.175781 266.171875 16.175781 C 265.21875 16.175781 264.445312 16.949219 264.445312 17.902344 C 264.445312 18.855469 265.21875 19.628906 266.171875 19.628906 L 266.171875 21.589844 C 264.136719 21.589844 262.484375 19.941406 262.484375 17.902344" fill="#29a4da"/></g><g id="change3_6"><path d="M 277.214844 19.664062 C 277.332031 18.839844 277.558594 18.109375 277.898438 17.472656 C 278.234375 16.835938 278.664062 16.300781 279.183594 15.871094 C 279.703125 15.441406 280.296875 15.113281 280.96875 14.890625 C 281.640625 14.664062 282.363281 14.554688 283.140625 14.554688 C 283.90625 14.554688 284.617188 14.664062 285.265625 14.882812 C 285.917969 15.101562 286.476562 15.414062 286.945312 15.820312 C 287.414062 16.226562 287.777344 16.714844 288.039062 17.285156 C 288.300781 17.859375 288.433594 18.496094 288.433594 19.199219 C 288.433594 19.773438 288.359375 20.285156 288.210938 20.734375 C 288.0625 21.1875 287.851562 21.582031 287.578125 21.917969 C 287.304688 22.257812 286.972656 22.542969 286.585938 22.777344 C 286.195312 23.015625 285.761719 23.210938 285.28125 23.359375 C 286.460938 23.664062 287.351562 24.1875 287.945312 24.925781 C 288.539062 25.660156 288.839844 26.585938 288.839844 27.6875 C 288.839844 28.523438 288.679688 29.273438 288.363281 29.941406 C 288.046875 30.609375 287.613281 31.175781 287.066406 31.644531 C 286.515625 32.109375 285.878906 32.46875 285.148438 32.71875 C 284.417969 32.96875 283.632812 33.09375 282.796875 33.09375 C 281.835938 33.09375 281.011719 32.972656 280.328125 32.730469 C 279.644531 32.488281 279.066406 32.160156 278.59375 31.738281 C 278.121094 31.316406 277.734375 30.816406 277.429688 30.238281 C 277.125 29.660156 276.867188 29.035156 276.65625 28.359375 L 277.632812 27.953125 C 277.886719 27.84375 278.132812 27.816406 278.371094 27.863281 C 278.613281 27.914062 278.789062 28.054688 278.898438 28.28125 C 279.007812 28.519531 279.144531 28.800781 279.308594 29.132812 C 279.472656 29.460938 279.699219 29.777344 279.988281 30.078125 C 280.273438 30.382812 280.640625 30.640625 281.082031 30.851562 C 281.523438 31.0625 282.089844 31.167969 282.773438 31.167969 C 283.40625 31.167969 283.960938 31.066406 284.4375 30.859375 C 284.914062 30.652344 285.3125 30.382812 285.628906 30.054688 C 285.945312 29.726562 286.183594 29.359375 286.34375 28.953125 C 286.503906 28.550781 286.585938 28.148438 286.585938 27.753906 C 286.585938 27.261719 286.519531 26.816406 286.394531 26.410156 C 286.269531 26.007812 286.03125 25.65625 285.683594 25.359375 C 285.339844 25.066406 284.863281 24.832031 284.261719 24.664062 C 283.65625 24.496094 282.882812 24.410156 281.9375 24.410156 L 281.9375 22.777344 C 282.714844 22.769531 283.375 22.6875 283.917969 22.527344 C 284.464844 22.367188 284.90625 22.148438 285.25 21.867188 C 285.589844 21.589844 285.839844 21.257812 285.996094 20.867188 C 286.152344 20.480469 286.230469 20.050781 286.230469 19.578125 C 286.230469 19.054688 286.148438 18.601562 285.984375 18.210938 C 285.816406 17.824219 285.59375 17.503906 285.304688 17.25 C 285.019531 16.996094 284.679688 16.808594 284.285156 16.679688 C 283.894531 16.554688 283.46875 16.488281 283.011719 16.488281 C 282.558594 16.488281 282.132812 16.558594 281.742188 16.691406 C 281.347656 16.828125 281 17.015625 280.703125 17.257812 C 280.402344 17.496094 280.152344 17.78125 279.949219 18.109375 C 279.746094 18.4375 279.601562 18.800781 279.519531 19.199219 C 279.410156 19.492188 279.269531 19.691406 279.105469 19.785156 C 278.941406 19.882812 278.703125 19.910156 278.390625 19.867188 L 277.214844 19.664062" fill="#29a4da"/></g><g id="change4_1"><path d="M 120.980469 154.53125 C 117.832031 154.53125 115.28125 151.980469 115.28125 148.832031 L 115.28125 22.621094 C 115.28125 19.472656 117.832031 16.921875 120.980469 16.921875 L 150.890625 16.921875 L 150.890625 18.882812 L 120.980469 18.882812 C 118.917969 18.886719 117.246094 20.554688 117.242188 22.621094 L 117.242188 148.832031 C 117.246094 150.898438 118.917969 152.566406 120.980469 152.570312 L 213.738281 152.570312 C 215.800781 152.566406 217.472656 150.898438 217.476562 148.832031 L 217.476562 22.621094 C 217.472656 20.558594 215.800781 18.886719 213.738281 18.882812 L 183.828125 18.882812 L 183.828125 16.921875 L 213.738281 16.921875 C 216.886719 16.921875 219.4375 19.472656 219.4375 22.621094 L 219.4375 148.832031 C 219.4375 151.980469 216.886719 154.53125 213.738281 154.53125 L 120.980469 154.53125" fill="#29a4da"/></g><g id="change2_11"><path d="M 181.226562 156.261719 C 182.722656 156.261719 183.933594 155.046875 183.933594 153.550781 C 183.933594 152.054688 182.722656 150.84375 181.226562 150.84375 C 179.730469 150.84375 178.515625 152.054688 178.515625 153.550781 C 178.515625 155.046875 179.730469 156.261719 181.226562 156.261719" fill="#ffffff"/></g><g clip-path="url(#i)" id="change4_7"><path d="M 177.535156 153.550781 C 177.535156 151.515625 179.1875 149.863281 181.226562 149.863281 C 183.261719 149.863281 184.910156 151.515625 184.914062 153.550781 C 184.910156 155.589844 183.261719 157.238281 181.226562 157.238281 L 181.226562 155.277344 C 182.179688 155.277344 182.949219 154.507812 182.953125 153.550781 C 182.949219 152.597656 182.179688 151.824219 181.226562 151.824219 C 180.273438 151.824219 179.5 152.597656 179.496094 153.550781 C 179.5 154.503906 180.273438 155.277344 181.226562 155.277344 L 181.226562 157.238281 C 179.1875 157.238281 177.539062 155.589844 177.535156 153.550781" fill="#29a4da"/></g><g id="change2_12"><path d="M 171.980469 156.261719 C 173.476562 156.261719 174.6875 155.046875 174.6875 153.550781 C 174.6875 152.054688 173.476562 150.84375 171.980469 150.84375 C 170.488281 150.84375 169.273438 152.054688 169.273438 153.550781 C 169.273438 155.046875 170.488281 156.261719 171.980469 156.261719" fill="#ffffff"/></g><g clip-path="url(#j)" id="change4_9"><path d="M 168.292969 153.550781 C 168.292969 151.515625 169.945312 149.863281 171.980469 149.863281 C 174.019531 149.863281 175.667969 151.515625 175.667969 153.550781 C 175.667969 155.589844 174.019531 157.238281 171.980469 157.238281 L 171.980469 155.277344 C 172.9375 155.277344 173.707031 154.507812 173.707031 153.550781 C 173.707031 152.597656 172.9375 151.824219 171.980469 151.824219 C 171.027344 151.824219 170.257812 152.597656 170.253906 153.550781 C 170.257812 154.503906 171.027344 155.277344 171.980469 155.277344 L 171.980469 157.238281 C 169.945312 157.238281 168.292969 155.589844 168.292969 153.550781" fill="#29a4da"/></g><g id="change4_2"><path d="M 162.738281 156.261719 C 164.234375 156.261719 165.445312 155.046875 165.445312 153.550781 C 165.445312 152.054688 164.234375 150.84375 162.738281 150.84375 C 161.242188 150.84375 160.03125 152.054688 160.03125 153.550781 C 160.03125 155.046875 161.242188 156.261719 162.738281 156.261719" fill="#29a4da"/></g><g clip-path="url(#k)"><path d="M 1627.382812 9.782812 C 1642.34375 9.782812 1654.453125 21.93125 1654.453125 36.892187 C 1654.453125 51.853125 1642.34375 63.9625 1627.382812 63.9625 C 1612.421875 63.9625 1600.3125 51.853125 1600.3125 36.892187 C 1600.3125 21.93125 1612.421875 9.782812 1627.382812 9.782812 Z M 1627.382812 9.782812" fill="none" stroke="#29a4da" stroke-width="19.606" transform="matrix(.1 0 0 -.1 0 157.24)"/></g><g id="change2_13"><path d="M 153.496094 156.261719 C 154.992188 156.261719 156.203125 155.046875 156.203125 153.550781 C 156.203125 152.054688 154.992188 150.84375 153.496094 150.84375 C 152 150.84375 150.785156 152.054688 150.785156 153.550781 C 150.785156 155.046875 152 156.261719 153.496094 156.261719" fill="#ffffff"/></g><g clip-path="url(#l)" id="change4_8"><path d="M 149.808594 153.550781 C 149.808594 151.515625 151.457031 149.863281 153.492188 149.863281 C 155.53125 149.863281 157.183594 151.515625 157.183594 153.550781 C 157.183594 155.589844 155.53125 157.238281 153.492188 157.238281 L 153.492188 155.277344 C 154.449219 155.277344 155.21875 154.507812 155.222656 153.550781 C 155.21875 152.597656 154.449219 151.824219 153.492188 151.824219 C 152.542969 151.824219 151.769531 152.597656 151.765625 153.550781 C 151.769531 154.503906 152.542969 155.277344 153.492188 155.277344 L 153.492188 157.238281 C 151.457031 157.238281 149.808594 155.589844 149.808594 153.550781" fill="#29a4da"/></g><g id="change4_3"><path d="M 155.609375 38.847656 C 152.460938 38.847656 149.910156 36.296875 149.910156 33.148438 L 149.910156 5.703125 C 149.90625 3.640625 148.234375 1.96875 146.171875 1.964844 L 129.359375 1.964844 L 129.359375 0.00390625 L 146.171875 0.00390625 C 149.320312 0.00390625 151.867188 2.554688 151.871094 5.703125 L 151.871094 33.148438 C 151.875 35.210938 153.542969 36.882812 155.609375 36.886719 L 188.300781 36.886719 L 188.300781 38.847656 L 155.609375 38.847656" fill="#29a4da"/></g><g id="change2_14"><path d="M 182.503906 33.644531 L 188.300781 37.867188 L 182.503906 42.089844 Z M 182.503906 33.644531" fill="#ffffff"/></g><g id="change4_4"><path d="M 183.484375 40.160156 L 186.632812 37.863281 L 183.484375 35.570312 Z M 181.523438 33.644531 L 181.523438 31.714844 L 189.964844 37.863281 L 181.523438 44.015625 L 181.523438 33.644531" fill="#29a4da"/></g><g id="change2_15"><path d="M 150.890625 20.609375 C 152.386719 20.609375 153.597656 19.398438 153.597656 17.902344 C 153.597656 16.40625 152.386719 15.195312 150.890625 15.195312 C 149.394531 15.195312 148.183594 16.40625 148.183594 17.902344 C 148.183594 19.398438 149.394531 20.609375 150.890625 20.609375" fill="#ffffff"/></g><g id="change4_5"><path d="M 147.203125 17.902344 C 147.203125 15.863281 148.855469 14.214844 150.890625 14.214844 C 152.925781 14.214844 154.578125 15.863281 154.578125 17.902344 C 154.578125 19.9375 152.925781 21.589844 150.890625 21.589844 L 150.890625 19.628906 C 151.84375 19.628906 152.613281 18.855469 152.617188 17.902344 C 152.613281 16.945312 151.84375 16.175781 150.890625 16.175781 C 149.9375 16.175781 149.164062 16.945312 149.164062 17.902344 C 149.164062 18.855469 149.9375 19.628906 150.890625 19.628906 L 150.890625 21.589844 C 148.855469 21.589844 147.203125 19.941406 147.203125 17.902344" fill="#29a4da"/></g><g id="change4_6"><path d="M 172.785156 30.75 C 173.027344 30.75 173.222656 30.820312 173.367188 30.964844 C 173.511719 31.109375 173.582031 31.296875 173.582031 31.523438 L 173.582031 32.890625 L 161.476562 32.890625 L 161.476562 32.117188 C 161.476562 31.957031 161.511719 31.792969 161.578125 31.625 C 161.644531 31.453125 161.75 31.300781 161.894531 31.15625 L 167.707031 25.320312 C 168.1875 24.832031 168.625 24.363281 169.023438 23.910156 C 169.421875 23.460938 169.757812 23.007812 170.035156 22.550781 C 170.316406 22.097656 170.53125 21.632812 170.683594 21.164062 C 170.835938 20.695312 170.910156 20.195312 170.910156 19.664062 C 170.910156 19.136719 170.824219 18.667969 170.65625 18.269531 C 170.488281 17.867188 170.257812 17.535156 169.96875 17.273438 C 169.675781 17.015625 169.332031 16.816406 168.933594 16.6875 C 168.539062 16.554688 168.109375 16.488281 167.65625 16.488281 C 167.191406 16.488281 166.765625 16.558594 166.378906 16.691406 C 165.988281 16.828125 165.644531 17.015625 165.34375 17.257812 C 165.046875 17.496094 164.792969 17.78125 164.589844 18.109375 C 164.390625 18.4375 164.246094 18.800781 164.160156 19.199219 C 164.058594 19.492188 163.921875 19.691406 163.75 19.785156 C 163.574219 19.882812 163.332031 19.910156 163.019531 19.867188 L 161.84375 19.664062 C 161.960938 18.839844 162.191406 18.109375 162.535156 17.472656 C 162.875 16.835938 163.304688 16.300781 163.824219 15.871094 C 164.34375 15.441406 164.9375 15.113281 165.605469 14.890625 C 166.269531 14.664062 166.992188 14.554688 167.769531 14.554688 C 168.539062 14.554688 169.253906 14.667969 169.921875 14.894531 C 170.589844 15.125 171.167969 15.453125 171.65625 15.890625 C 172.144531 16.324219 172.53125 16.855469 172.808594 17.476562 C 173.089844 18.101562 173.226562 18.8125 173.226562 19.601562 C 173.226562 20.277344 173.125 20.902344 172.921875 21.484375 C 172.722656 22.058594 172.445312 22.609375 172.101562 23.132812 C 171.753906 23.65625 171.355469 24.167969 170.902344 24.664062 C 170.453125 25.160156 169.972656 25.664062 169.464844 26.171875 L 164.679688 31.054688 C 165.019531 30.960938 165.359375 30.886719 165.707031 30.832031 C 166.050781 30.777344 166.386719 30.75 166.707031 30.75 L 172.785156 30.75" fill="#29a4da"/></g><g id="change5_1"><path d="M 5.699219 154.53125 C 2.550781 154.53125 0 151.980469 0 148.832031 L 0 22.621094 C 0 19.472656 2.550781 16.921875 5.699219 16.921875 L 35.609375 16.921875 L 35.609375 18.882812 L 5.699219 18.882812 C 3.636719 18.886719 1.964844 20.554688 1.960938 22.621094 L 1.960938 148.832031 C 1.964844 150.898438 3.636719 152.566406 5.699219 152.570312 L 98.457031 152.570312 C 100.519531 152.566406 102.191406 150.898438 102.195312 148.832031 L 102.195312 22.621094 C 102.191406 20.554688 100.519531 18.886719 98.457031 18.882812 L 68.546875 18.882812 L 68.546875 16.921875 L 98.457031 16.921875 C 101.605469 16.921875 104.152344 19.472656 104.15625 22.621094 L 104.15625 148.832031 C 104.152344 151.980469 101.605469 154.53125 98.457031 154.53125 L 5.699219 154.53125" fill="#29a4da"/></g><g id="change2_16"><path d="M 65.941406 156.261719 C 67.4375 156.261719 68.652344 155.046875 68.652344 153.550781 C 68.652344 152.058594 67.4375 150.84375 65.941406 150.84375 C 64.449219 150.84375 63.234375 152.058594 63.234375 153.550781 C 63.234375 155.046875 64.449219 156.261719 65.941406 156.261719" fill="#ffffff"/></g><g clip-path="url(#m)" id="change5_7"><path d="M 62.253906 153.550781 C 62.253906 151.515625 63.90625 149.863281 65.941406 149.863281 C 67.980469 149.863281 69.628906 151.515625 69.628906 153.550781 C 69.628906 155.589844 67.980469 157.238281 65.941406 157.238281 L 65.941406 155.277344 C 66.898438 155.277344 67.667969 154.507812 67.667969 153.550781 C 67.667969 152.597656 66.898438 151.824219 65.941406 151.824219 C 64.988281 151.824219 64.21875 152.597656 64.214844 153.550781 C 64.21875 154.503906 64.988281 155.277344 65.941406 155.277344 L 65.941406 157.238281 C 63.90625 157.238281 62.253906 155.589844 62.253906 153.550781" fill="#29a4da"/></g><g id="change2_17"><path d="M 56.699219 156.261719 C 58.195312 156.261719 59.40625 155.046875 59.40625 153.550781 C 59.40625 152.058594 58.195312 150.84375 56.699219 150.84375 C 55.207031 150.84375 53.992188 152.058594 53.992188 153.550781 C 53.992188 155.046875 55.207031 156.261719 56.699219 156.261719" fill="#ffffff"/></g><g clip-path="url(#n)" id="change5_8"><path d="M 53.011719 153.550781 C 53.011719 151.515625 54.664062 149.863281 56.699219 149.863281 C 58.738281 149.863281 60.386719 151.515625 60.386719 153.550781 C 60.386719 155.589844 58.738281 157.238281 56.699219 157.238281 L 56.699219 155.277344 C 57.652344 155.277344 58.425781 154.507812 58.425781 153.550781 C 58.425781 152.597656 57.652344 151.824219 56.699219 151.824219 C 55.746094 151.824219 54.972656 152.597656 54.972656 153.550781 C 54.972656 154.503906 55.746094 155.277344 56.699219 155.277344 L 56.699219 157.238281 C 54.664062 157.238281 53.011719 155.589844 53.011719 153.550781" fill="#29a4da"/></g><g id="change2_18"><path d="M 47.457031 156.261719 C 48.953125 156.261719 50.164062 155.046875 50.164062 153.550781 C 50.164062 152.058594 48.953125 150.84375 47.457031 150.84375 C 45.960938 150.84375 44.75 152.058594 44.75 153.550781 C 44.75 155.046875 45.960938 156.261719 47.457031 156.261719" fill="#ffffff"/></g><g clip-path="url(#o)" id="change5_9"><path d="M 43.769531 153.550781 C 43.769531 151.515625 45.417969 149.863281 47.457031 149.863281 C 49.492188 149.863281 51.144531 151.515625 51.144531 153.550781 C 51.144531 155.589844 49.492188 157.238281 47.457031 157.238281 L 47.457031 155.277344 C 48.410156 155.277344 49.179688 154.507812 49.183594 153.550781 C 49.179688 152.597656 48.410156 151.824219 47.457031 151.824219 C 46.503906 151.824219 45.730469 152.597656 45.730469 153.550781 C 45.730469 154.503906 46.503906 155.277344 47.457031 155.277344 L 47.457031 157.238281 C 45.417969 157.238281 43.769531 155.589844 43.769531 153.550781" fill="#29a4da"/></g><g id="change5_2"><path d="M 38.214844 156.261719 C 39.710938 156.261719 40.921875 155.046875 40.921875 153.550781 C 40.921875 152.058594 39.710938 150.84375 38.214844 150.84375 C 36.71875 150.84375 35.503906 152.058594 35.503906 153.550781 C 35.503906 155.046875 36.71875 156.261719 38.214844 156.261719" fill="#29a4da"/></g><g clip-path="url(#p)"><path d="M 382.148438 9.782812 C 397.109375 9.782812 409.21875 21.93125 409.21875 36.892187 C 409.21875 51.814062 397.109375 63.9625 382.148438 63.9625 C 367.1875 63.9625 355.039062 51.814062 355.039062 36.892187 C 355.039062 21.93125 367.1875 9.782812 382.148438 9.782812 Z M 382.148438 9.782812" fill="none" stroke="#29a4da" stroke-width="19.606" transform="matrix(.1 0 0 -.1 0 157.24)"/></g><g id="change5_3"><path d="M 40.328125 38.847656 C 37.179688 38.847656 34.628906 36.296875 34.628906 33.148438 L 34.628906 5.703125 C 34.625 3.640625 32.953125 1.96875 30.890625 1.964844 L 14.078125 1.964844 L 14.078125 0.00390625 L 30.890625 0.00390625 C 34.035156 0.00390625 36.585938 2.554688 36.589844 5.703125 L 36.589844 33.148438 C 36.59375 35.210938 38.261719 36.882812 40.328125 36.886719 L 73.015625 36.886719 L 73.015625 38.847656 L 40.328125 38.847656" fill="#29a4da"/></g><g id="change2_19"><path d="M 67.222656 33.644531 L 73.015625 37.867188 L 67.222656 42.089844 Z M 67.222656 33.644531" fill="#ffffff"/></g><g id="change5_4"><path d="M 68.203125 40.160156 L 71.351562 37.867188 L 68.203125 35.570312 Z M 66.242188 33.644531 L 66.242188 31.714844 L 74.679688 37.867188 L 66.242188 44.015625 L 66.242188 33.644531" fill="#29a4da"/></g><g id="change2_20"><path d="M 35.609375 20.609375 C 37.105469 20.609375 38.316406 19.398438 38.316406 17.902344 C 38.316406 16.40625 37.105469 15.195312 35.609375 15.195312 C 34.113281 15.195312 32.902344 16.40625 32.902344 17.902344 C 32.902344 19.398438 34.113281 20.609375 35.609375 20.609375" fill="#ffffff"/></g><g id="change5_5"><path d="M 31.921875 17.902344 C 31.921875 15.863281 33.570312 14.214844 35.609375 14.214844 C 37.644531 14.214844 39.296875 15.863281 39.296875 17.902344 C 39.296875 19.9375 37.644531 21.589844 35.609375 21.589844 L 35.609375 19.628906 C 36.5625 19.628906 37.332031 18.855469 37.335938 17.902344 C 37.332031 16.945312 36.5625 16.175781 35.609375 16.175781 C 34.65625 16.175781 33.882812 16.945312 33.882812 17.902344 C 33.882812 18.855469 34.65625 19.628906 35.609375 19.628906 L 35.609375 21.589844 C 33.570312 21.589844 31.921875 19.941406 31.921875 17.902344" fill="#29a4da"/></g><g id="change5_6"><path d="M 57.894531 31.167969 L 57.894531 32.890625 L 48.167969 32.890625 L 48.167969 31.167969 L 52.058594 31.167969 L 52.058594 18.804688 C 52.058594 18.433594 52.070312 18.058594 52.09375 17.679688 L 48.867188 20.449219 C 48.757812 20.542969 48.648438 20.601562 48.535156 20.621094 C 48.425781 20.644531 48.324219 20.644531 48.234375 20.628906 C 48.140625 20.609375 48.054688 20.578125 47.972656 20.527344 C 47.894531 20.476562 47.832031 20.421875 47.789062 20.363281 L 47.082031 19.386719 L 52.488281 14.71875 L 54.324219 14.71875 L 54.324219 31.167969 L 57.894531 31.167969" fill="#29a4da"/></g></g></svg>