<?xml version="1.0" encoding="UTF-8" standalone="no"?><svg xmlns="http://www.w3.org/2000/svg" xmlns:xlink="http://www.w3.org/1999/xlink" fill="#000000" height="49.9" preserveAspectRatio="xMidYMid meet" version="1" viewBox="-0.4 -1.5 443.1 49.9" width="443.1" zoomAndPan="magnify"><g id="change1_1"><path d="M434.6,46.1c-4,2.3-8.8,2.2-13.3,2c-59.8-1.8-119.6-2.5-179.4-2.2c-37.5,0.2-75.2,1.1-112.6,0.9 C90.8,46.7,52.3,46,13.9,45.1C5.6,45,1.2,42.1,0.4,33.6c-0.8-7.9-0.5-16,0.9-23.9c0.4-2.2,0.9-4.4,2.4-6c2.1-2.2,5.4-2.5,8.4-2.6 c59.7-2.6,119.4,0.2,179.1,0.5C268.1,2.1,345.1,3,422.1,3c5.7,0,12.1,0.4,15.9,4.5c3.1,3.3,3.7,8.2,4.1,12.7c0.1,1.5,0.3,3,0.3,4.5 C442.7,33.2,441.5,42.1,434.6,46.1z" fill="#262c2e"/></g></svg>